<svg width="200" height="200" viewBox="0 0 200 200" fill="none"
     xmlns="http://www.w3.org/2000/svg">
<g clip-path="url(#clip0_869_138)">
<path
  d="M-41.9028 7.00501C-21.508 -23.6655 42.1461 -10.876 75.816 15.6593C81.3358 20.0351 98.2752 34.0385 105.355 56.2721C125.735 
  62.5534 144.035 82.8331 149.311 100.912C156.112 124.204 141.518 131.49 147.142 152.647C151.777 169.984 177.548 191.857 
  167.901 207.735C158.86 222.563 119.226 211.777 98.9891 200.071C77.324 187.577 69.6492 174.28 35.5786 155.32C4.34691 
  138.079 -30.1214 152.443 -45.9913 134.332C-62.7881 114.952 -65.163 34.7011 -41.9028 7.00501Z"
  fill="url(#paint0_linear_869_138)" fill-opacity="0.25" />
</g>
<defs>
<linearGradient id="paint0_linear_869_138" x1="188.814"
  y1="163.371" x2="-23.3793" y2="-7.62241"
  gradientUnits="userSpaceOnUse">
<stop offset="0.02" stop-color="#5552FF"/>
<stop offset="1" stop-color="#9622FF"/>
</linearGradient>
<clipPath id="clip0_869_138">
<rect width="200" height="200" fill="white"/>
</clipPath>
</defs>
</svg>
